<mxfile host="65bd71144e" scale="1" border="50">
    <diagram id="Z99NbSe4vz-zhZNeXDHL" name="第 1 页">
        <mxGraphModel dx="2499" dy="798" grid="0" gridSize="50" guides="0" tooltips="1" connect="1" arrows="1" fold="1" page="1" pageScale="1" pageWidth="1169" pageHeight="827" background="#FFFFFF" math="0" shadow="0">
            <root>
                <mxCell id="0"/>
                <mxCell id="1" parent="0"/>
                <mxCell id="67" value="" style="edgeStyle=none;html=1;fontColor=#000000;labelBorderColor=none;labelBackgroundColor=#FFFFFF;fillColor=none;strokeColor=#000000;" edge="1" parent="1" source="2" target="48">
                    <mxGeometry relative="1" as="geometry"/>
                </mxCell>
                <mxCell id="2" value="前端vue.js" style="swimlane;fontStyle=0;childLayout=stackLayout;horizontal=1;startSize=30;horizontalStack=0;resizeParent=1;resizeParentMax=0;resizeLast=0;collapsible=1;marginBottom=0;whiteSpace=wrap;html=1;labelBorderColor=none;labelBackgroundColor=#FFFFFF;fillColor=none;strokeColor=#000000;fontColor=#000000;" vertex="1" parent="1">
                    <mxGeometry x="-490" y="175" width="200" height="180" as="geometry"/>
                </mxCell>
                <mxCell id="3" value="用户界面设计" style="text;align=left;verticalAlign=middle;spacingLeft=4;spacingRight=4;overflow=hidden;points=[[0,0.5],[1,0.5]];portConstraint=eastwest;rotatable=0;whiteSpace=wrap;html=1;labelBorderColor=none;labelBackgroundColor=#FFFFFF;fillColor=none;strokeColor=#000000;fontColor=#000000;" vertex="1" parent="2">
                    <mxGeometry y="30" width="200" height="30" as="geometry"/>
                </mxCell>
                <mxCell id="4" value="element ui" style="text;align=left;verticalAlign=middle;spacingLeft=4;spacingRight=4;overflow=hidden;points=[[0,0.5],[1,0.5]];portConstraint=eastwest;rotatable=0;whiteSpace=wrap;html=1;labelBorderColor=none;labelBackgroundColor=#FFFFFF;fillColor=none;strokeColor=#000000;fontColor=#000000;" vertex="1" parent="2">
                    <mxGeometry y="60" width="200" height="30" as="geometry"/>
                </mxCell>
                <mxCell id="5" value="axios 网络请求模块" style="text;align=left;verticalAlign=middle;spacingLeft=4;spacingRight=4;overflow=hidden;points=[[0,0.5],[1,0.5]];portConstraint=eastwest;rotatable=0;whiteSpace=wrap;html=1;labelBorderColor=none;labelBackgroundColor=#FFFFFF;fillColor=none;strokeColor=#000000;fontColor=#000000;" vertex="1" parent="2">
                    <mxGeometry y="90" width="200" height="30" as="geometry"/>
                </mxCell>
                <mxCell id="8" value="router 路由页面跳转模块" style="text;align=left;verticalAlign=middle;spacingLeft=4;spacingRight=4;overflow=hidden;points=[[0,0.5],[1,0.5]];portConstraint=eastwest;rotatable=0;whiteSpace=wrap;html=1;labelBorderColor=none;labelBackgroundColor=#FFFFFF;fillColor=none;strokeColor=#000000;fontColor=#000000;" vertex="1" parent="2">
                    <mxGeometry y="120" width="200" height="30" as="geometry"/>
                </mxCell>
                <mxCell id="7" value="socket 网络通信模块" style="text;align=left;verticalAlign=middle;spacingLeft=4;spacingRight=4;overflow=hidden;points=[[0,0.5],[1,0.5]];portConstraint=eastwest;rotatable=0;whiteSpace=wrap;html=1;labelBorderColor=none;labelBackgroundColor=#FFFFFF;fillColor=none;strokeColor=#000000;fontColor=#000000;" vertex="1" parent="2">
                    <mxGeometry y="150" width="200" height="30" as="geometry"/>
                </mxCell>
                <mxCell id="53" value="" style="edgeStyle=none;html=1;fontColor=#000000;labelBorderColor=none;labelBackgroundColor=#FFFFFF;fillColor=none;strokeColor=#000000;" edge="1" parent="1" source="9" target="52">
                    <mxGeometry relative="1" as="geometry"/>
                </mxCell>
                <mxCell id="9" value="后端Springboot&lt;span style=&quot;font-family: &amp;quot;Söhne Mono&amp;quot;, Monaco, &amp;quot;Andale Mono&amp;quot;, &amp;quot;Ubuntu Mono&amp;quot;, monospace; font-size: 14px; text-align: left;&quot;&gt;服务器&lt;/span&gt;" style="swimlane;fontStyle=0;childLayout=stackLayout;horizontal=1;startSize=30;horizontalStack=0;resizeParent=1;resizeParentMax=0;resizeLast=0;collapsible=1;marginBottom=0;whiteSpace=wrap;html=1;labelBorderColor=none;labelBackgroundColor=#FFFFFF;fillColor=none;strokeColor=#000000;fontColor=#000000;" vertex="1" parent="1">
                    <mxGeometry x="160" y="175" width="200" height="210" as="geometry"/>
                </mxCell>
                <mxCell id="10" value="&lt;span style=&quot;font-family: &amp;quot;Söhne Mono&amp;quot;, Monaco, &amp;quot;Andale Mono&amp;quot;, &amp;quot;Ubuntu Mono&amp;quot;, monospace; font-size: 14px;&quot;&gt;控制器 Controller&lt;/span&gt;" style="text;align=left;verticalAlign=middle;spacingLeft=4;spacingRight=4;overflow=hidden;points=[[0,0.5],[1,0.5]];portConstraint=eastwest;rotatable=0;whiteSpace=wrap;html=1;labelBorderColor=none;labelBackgroundColor=#FFFFFF;fillColor=none;strokeColor=#000000;fontColor=#000000;" vertex="1" parent="9">
                    <mxGeometry y="30" width="200" height="30" as="geometry"/>
                </mxCell>
                <mxCell id="17" value="实体类&amp;nbsp; Entity" style="text;align=left;verticalAlign=middle;spacingLeft=4;spacingRight=4;overflow=hidden;points=[[0,0.5],[1,0.5]];portConstraint=eastwest;rotatable=0;whiteSpace=wrap;html=1;labelBorderColor=none;labelBackgroundColor=#FFFFFF;fillColor=none;strokeColor=#000000;fontColor=#000000;" vertex="1" parent="9">
                    <mxGeometry y="60" width="200" height="30" as="geometry"/>
                </mxCell>
                <mxCell id="11" value="&lt;span style=&quot;font-family: &amp;quot;Söhne Mono&amp;quot;, Monaco, &amp;quot;Andale Mono&amp;quot;, &amp;quot;Ubuntu Mono&amp;quot;, monospace; font-size: 14px;&quot;&gt;业务逻辑处理 Service&lt;/span&gt;" style="text;align=left;verticalAlign=middle;spacingLeft=4;spacingRight=4;overflow=hidden;points=[[0,0.5],[1,0.5]];portConstraint=eastwest;rotatable=0;whiteSpace=wrap;html=1;labelBorderColor=none;labelBackgroundColor=#FFFFFF;fillColor=none;strokeColor=#000000;fontColor=#000000;" vertex="1" parent="9">
                    <mxGeometry y="90" width="200" height="30" as="geometry"/>
                </mxCell>
                <mxCell id="12" value="数据库接口 Mapper" style="text;align=left;verticalAlign=middle;spacingLeft=4;spacingRight=4;overflow=hidden;points=[[0,0.5],[1,0.5]];portConstraint=eastwest;rotatable=0;whiteSpace=wrap;html=1;labelBorderColor=none;labelBackgroundColor=#FFFFFF;fillColor=none;strokeColor=#000000;fontColor=#000000;" vertex="1" parent="9">
                    <mxGeometry y="120" width="200" height="30" as="geometry"/>
                </mxCell>
                <mxCell id="13" value="错误接口 Exception" style="text;align=left;verticalAlign=middle;spacingLeft=4;spacingRight=4;overflow=hidden;points=[[0,0.5],[1,0.5]];portConstraint=eastwest;rotatable=0;whiteSpace=wrap;html=1;labelBorderColor=none;labelBackgroundColor=#FFFFFF;fillColor=none;strokeColor=#000000;fontColor=#000000;" vertex="1" parent="9">
                    <mxGeometry y="150" width="200" height="30" as="geometry"/>
                </mxCell>
                <mxCell id="14" value="工具类 Util" style="text;align=left;verticalAlign=middle;spacingLeft=4;spacingRight=4;overflow=hidden;points=[[0,0.5],[1,0.5]];portConstraint=eastwest;rotatable=0;whiteSpace=wrap;html=1;labelBorderColor=none;labelBackgroundColor=#FFFFFF;fillColor=none;strokeColor=#000000;fontColor=#000000;" vertex="1" parent="9">
                    <mxGeometry y="180" width="200" height="30" as="geometry"/>
                </mxCell>
                <mxCell id="25" value="JWT认证模块" style="rounded=0;whiteSpace=wrap;html=1;flipV=1;labelBorderColor=none;labelBackgroundColor=#FFFFFF;fillColor=none;strokeColor=#000000;fontColor=#000000;" vertex="1" parent="1">
                    <mxGeometry x="630" y="250" width="120" height="60" as="geometry"/>
                </mxCell>
                <mxCell id="38" style="edgeStyle=none;html=1;exitX=1;exitY=0.5;exitDx=0;exitDy=0;entryX=0;entryY=0.5;entryDx=0;entryDy=0;fontColor=#000000;labelBorderColor=none;labelBackgroundColor=#FFFFFF;fillColor=none;strokeColor=#000000;" edge="1" parent="1" source="26" target="35">
                    <mxGeometry relative="1" as="geometry"/>
                </mxCell>
                <mxCell id="26" value="用户数据处理模块" style="rounded=0;whiteSpace=wrap;html=1;flipV=1;labelBorderColor=none;labelBackgroundColor=#FFFFFF;fillColor=none;strokeColor=#000000;fontColor=#000000;" vertex="1" parent="1">
                    <mxGeometry x="630" y="10" width="120" height="60" as="geometry"/>
                </mxCell>
                <mxCell id="51" style="edgeStyle=none;html=1;exitX=1;exitY=0.5;exitDx=0;exitDy=0;entryX=0;entryY=0.5;entryDx=0;entryDy=0;fontColor=#000000;labelBorderColor=none;labelBackgroundColor=#FFFFFF;fillColor=none;strokeColor=#000000;" edge="1" parent="1" source="27" target="50">
                    <mxGeometry relative="1" as="geometry"/>
                </mxCell>
                <mxCell id="27" value="人脸识别模块" style="rounded=0;whiteSpace=wrap;html=1;flipV=1;labelBorderColor=none;labelBackgroundColor=#FFFFFF;fillColor=none;strokeColor=#000000;fontColor=#000000;" vertex="1" parent="1">
                    <mxGeometry x="630" y="510" width="120" height="60" as="geometry"/>
                </mxCell>
                <mxCell id="40" style="edgeStyle=none;html=1;exitX=1;exitY=0.5;exitDx=0;exitDy=0;entryX=0;entryY=0.5;entryDx=0;entryDy=0;fontColor=#000000;labelBorderColor=none;labelBackgroundColor=#FFFFFF;fillColor=none;strokeColor=#000000;" edge="1" parent="1" source="28" target="35">
                    <mxGeometry relative="1" as="geometry"/>
                </mxCell>
                <mxCell id="28" value="文件处理模块" style="rounded=0;whiteSpace=wrap;html=1;flipV=1;labelBorderColor=none;labelBackgroundColor=#FFFFFF;fillColor=none;strokeColor=#000000;fontColor=#000000;" vertex="1" parent="1">
                    <mxGeometry x="630" y="115" width="120" height="60" as="geometry"/>
                </mxCell>
                <mxCell id="37" style="edgeStyle=none;html=1;exitX=1;exitY=0.5;exitDx=0;exitDy=0;entryX=0;entryY=0.5;entryDx=0;entryDy=0;fontColor=#000000;labelBorderColor=none;labelBackgroundColor=#FFFFFF;fillColor=none;strokeColor=#000000;" edge="1" parent="1" source="31" target="36">
                    <mxGeometry relative="1" as="geometry"/>
                </mxCell>
                <mxCell id="31" value="Redis缓存模块" style="rounded=0;whiteSpace=wrap;html=1;flipV=1;labelBorderColor=none;labelBackgroundColor=#FFFFFF;fillColor=none;strokeColor=#000000;fontColor=#000000;" vertex="1" parent="1">
                    <mxGeometry x="630" y="385" width="120" height="60" as="geometry"/>
                </mxCell>
                <mxCell id="62" value="" style="edgeStyle=none;html=1;fontColor=#000000;labelBorderColor=none;labelBackgroundColor=#FFFFFF;fillColor=none;strokeColor=#000000;" edge="1" parent="1" source="32" target="25">
                    <mxGeometry relative="1" as="geometry"/>
                </mxCell>
                <mxCell id="71" style="edgeStyle=none;html=1;exitX=1;exitY=0.5;exitDx=0;exitDy=0;entryX=0;entryY=0.5;entryDx=0;entryDy=0;fontColor=#000000;labelBorderColor=none;labelBackgroundColor=#FFFFFF;fillColor=none;strokeColor=#000000;" edge="1" parent="1" source="32" target="26">
                    <mxGeometry relative="1" as="geometry"/>
                </mxCell>
                <mxCell id="72" style="edgeStyle=none;html=1;exitX=1;exitY=0.5;exitDx=0;exitDy=0;entryX=0;entryY=0.5;entryDx=0;entryDy=0;fontColor=#000000;labelBorderColor=none;labelBackgroundColor=#FFFFFF;fillColor=none;strokeColor=#000000;" edge="1" parent="1" source="32" target="28">
                    <mxGeometry relative="1" as="geometry"/>
                </mxCell>
                <mxCell id="73" style="edgeStyle=none;html=1;exitX=1;exitY=0.5;exitDx=0;exitDy=0;entryX=0;entryY=0.5;entryDx=0;entryDy=0;fontColor=#000000;labelBorderColor=none;labelBackgroundColor=#FFFFFF;fillColor=none;strokeColor=#000000;" edge="1" parent="1" source="32" target="31">
                    <mxGeometry relative="1" as="geometry"/>
                </mxCell>
                <mxCell id="74" style="edgeStyle=none;html=1;exitX=1;exitY=0.5;exitDx=0;exitDy=0;entryX=0;entryY=0.5;entryDx=0;entryDy=0;fontColor=#000000;labelBorderColor=none;labelBackgroundColor=#FFFFFF;fillColor=none;strokeColor=#000000;" edge="1" parent="1" source="32" target="27">
                    <mxGeometry relative="1" as="geometry"/>
                </mxCell>
                <mxCell id="32" value="前置拦截器" style="rounded=0;whiteSpace=wrap;html=1;labelBorderColor=none;labelBackgroundColor=#FFFFFF;fillColor=none;strokeColor=#000000;fontColor=#000000;" vertex="1" parent="1">
                    <mxGeometry x="450" y="250" width="80" height="60" as="geometry"/>
                </mxCell>
                <mxCell id="35" value="MYSQL" style="whiteSpace=wrap;html=1;aspect=fixed;labelBorderColor=none;labelBackgroundColor=#FFFFFF;fillColor=none;strokeColor=#000000;fontColor=#000000;" vertex="1" parent="1">
                    <mxGeometry x="930" y="30" width="110" height="110" as="geometry"/>
                </mxCell>
                <mxCell id="36" value="Redis" style="whiteSpace=wrap;html=1;aspect=fixed;labelBorderColor=none;labelBackgroundColor=#FFFFFF;fillColor=none;strokeColor=#000000;fontColor=#000000;" vertex="1" parent="1">
                    <mxGeometry x="930" y="360" width="110" height="110" as="geometry"/>
                </mxCell>
                <mxCell id="64" style="edgeStyle=none;html=1;exitX=1;exitY=0.5;exitDx=0;exitDy=0;entryX=0;entryY=0.5;entryDx=0;entryDy=0;fontColor=#000000;labelBorderColor=none;labelBackgroundColor=#FFFFFF;fillColor=none;strokeColor=#000000;" edge="1" parent="1" source="41" target="10">
                    <mxGeometry relative="1" as="geometry"/>
                </mxCell>
                <mxCell id="41" value="请求拦截器" style="rounded=0;whiteSpace=wrap;html=1;labelBorderColor=none;labelBackgroundColor=#FFFFFF;fillColor=none;strokeColor=#000000;fontColor=#000000;" vertex="1" parent="1">
                    <mxGeometry x="-80" y="175" width="80" height="60" as="geometry"/>
                </mxCell>
                <mxCell id="66" style="edgeStyle=none;html=1;exitX=0;exitY=0.5;exitDx=0;exitDy=0;entryX=1;entryY=0.5;entryDx=0;entryDy=0;fontColor=#000000;labelBorderColor=none;labelBackgroundColor=#FFFFFF;fillColor=none;strokeColor=#000000;" edge="1" parent="1" source="42" target="5">
                    <mxGeometry relative="1" as="geometry"/>
                </mxCell>
                <mxCell id="42" value="响应拦截器" style="rounded=0;whiteSpace=wrap;html=1;labelBorderColor=none;labelBackgroundColor=#FFFFFF;fillColor=none;strokeColor=#000000;fontColor=#000000;" vertex="1" parent="1">
                    <mxGeometry x="-80" y="280" width="80" height="60" as="geometry"/>
                </mxCell>
                <mxCell id="48" value="浏览器缓存" style="whiteSpace=wrap;html=1;aspect=fixed;labelBorderColor=none;labelBackgroundColor=#FFFFFF;fillColor=none;strokeColor=#000000;fontColor=#000000;" vertex="1" parent="1">
                    <mxGeometry x="-445" y="470" width="110" height="110" as="geometry"/>
                </mxCell>
                <mxCell id="50" value="百度服务器" style="whiteSpace=wrap;html=1;aspect=fixed;labelBorderColor=none;labelBackgroundColor=#FFFFFF;fillColor=none;strokeColor=#000000;fontColor=#000000;" vertex="1" parent="1">
                    <mxGeometry x="930" y="485" width="110" height="110" as="geometry"/>
                </mxCell>
                <mxCell id="52" value="本地缓存" style="whiteSpace=wrap;html=1;aspect=fixed;labelBorderColor=none;labelBackgroundColor=#FFFFFF;fillColor=none;strokeColor=#000000;fontColor=#000000;" vertex="1" parent="1">
                    <mxGeometry x="205" y="470" width="110" height="110" as="geometry"/>
                </mxCell>
                <mxCell id="56" value="socket考试通讯模块" style="rounded=0;whiteSpace=wrap;html=1;flipV=1;labelBorderColor=none;labelBackgroundColor=#FFFFFF;fillColor=none;strokeColor=#000000;fontColor=#000000;" vertex="1" parent="1">
                    <mxGeometry x="630" y="620" width="120" height="60" as="geometry"/>
                </mxCell>
                <mxCell id="63" style="edgeStyle=none;html=1;exitX=1;exitY=0.5;exitDx=0;exitDy=0;entryX=0;entryY=0.5;entryDx=0;entryDy=0;fontColor=#000000;labelBorderColor=none;labelBackgroundColor=#FFFFFF;fillColor=none;strokeColor=#000000;" edge="1" parent="1" source="4" target="41">
                    <mxGeometry relative="1" as="geometry"/>
                </mxCell>
                <mxCell id="65" style="edgeStyle=none;html=1;exitX=0;exitY=0.5;exitDx=0;exitDy=0;entryX=1;entryY=0.5;entryDx=0;entryDy=0;fontColor=#000000;labelBorderColor=none;labelBackgroundColor=#FFFFFF;fillColor=none;strokeColor=#000000;" edge="1" parent="1" source="11" target="42">
                    <mxGeometry relative="1" as="geometry"/>
                </mxCell>
                <mxCell id="68" style="edgeStyle=none;html=1;exitX=1;exitY=0.5;exitDx=0;exitDy=0;entryX=0;entryY=0.5;entryDx=0;entryDy=0;fontColor=#000000;labelBorderColor=none;labelBackgroundColor=#FFFFFF;fillColor=none;strokeColor=#000000;" edge="1" parent="1" source="11" target="32">
                    <mxGeometry relative="1" as="geometry"/>
                </mxCell>
                <mxCell id="76" style="edgeStyle=none;html=1;exitX=1;exitY=0.5;exitDx=0;exitDy=0;entryX=0;entryY=0.5;entryDx=0;entryDy=0;fontColor=#000000;labelBorderColor=none;labelBackgroundColor=#FFFFFF;fillColor=none;strokeColor=#000000;" edge="1" parent="1" source="7" target="56">
                    <mxGeometry relative="1" as="geometry">
                        <Array as="points">
                            <mxPoint y="640"/>
                        </Array>
                    </mxGeometry>
                </mxCell>
                <mxCell id="79" style="edgeStyle=none;html=1;exitX=1;exitY=0.5;exitDx=0;exitDy=0;entryX=0;entryY=0.5;entryDx=0;entryDy=0;fontColor=#000000;labelBorderColor=none;labelBackgroundColor=#FFFFFF;fillColor=none;strokeColor=#000000;" edge="1" parent="1" source="11" target="56">
                    <mxGeometry relative="1" as="geometry"/>
                </mxCell>
            </root>
        </mxGraphModel>
    </diagram>
</mxfile>